%FSLAX42Y42*%
%MOMM*%
G71*
G01*
G75*
G04 Layer_Color=16711935*
%ADD10R,0.60X1.55*%
%ADD11R,0.89X0.89*%
%ADD12R,0.89X0.89*%
%ADD13R,1.10X2.50*%
%ADD14C,0.56*%
%ADD15C,0.61*%
%ADD16C,0.72*%
%ADD17R,0.60X2.20*%
%ADD18R,1.10X1.70*%
%ADD19R,1.70X1.10*%
%ADD20C,0.50*%
%ADD21C,0.25*%
%ADD22C,2.00*%
%ADD23R,1.50X1.50*%
%ADD24C,1.50*%
%ADD25C,1.22*%
%ADD26C,0.70*%
%ADD27C,0.25*%
%ADD28C,0.20*%
%ADD29C,0.10*%
%ADD30R,0.80X1.75*%
%ADD31R,1.09X1.09*%
%ADD32R,1.09X1.09*%
%ADD33R,1.30X2.70*%
%ADD34C,0.77*%
%ADD35C,0.82*%
%ADD36C,0.93*%
%ADD37R,0.80X2.40*%
%ADD38R,1.30X1.90*%
%ADD39R,1.90X1.30*%
%ADD40C,2.20*%
%ADD41R,1.70X1.70*%
%ADD42C,1.70*%
%ADD43C,1.43*%
%ADD44C,0.90*%
%ADD45C,0.05*%
%ADD46C,0.15*%
D21*
X900Y600D02*
G03*
X750Y750I-150J0D01*
G01*
X-650Y750D02*
G03*
X-800Y600I0J-150D01*
G01*
X-800Y-1290D02*
G03*
X-650Y-1440I150J0D01*
G01*
X760D02*
G03*
X900Y-1300I0J140D01*
G01*
X-1485Y-1440D02*
X-688D01*
X-1485Y750D02*
X-688D01*
X-1460Y-1440D02*
Y-756D01*
Y-15D02*
Y750D01*
Y-1440D02*
X-1409Y-1288D01*
X-1511D02*
X-1460Y-1440D01*
X-1511Y598D02*
X-1460Y750D01*
X-1409Y598D01*
X900Y638D02*
Y1225D01*
X-800Y638D02*
Y1225D01*
X380Y1200D02*
X900D01*
X-800D02*
X-361D01*
X748Y1251D02*
X900Y1200D01*
X748Y1149D02*
X900Y1200D01*
X-800D02*
X-648Y1149D01*
X-800Y1200D02*
X-648Y1251D01*
X-650Y750D02*
X750D01*
X-800Y-1290D02*
Y600D01*
X-650Y-1440D02*
X760D01*
X900Y-1300D02*
Y600D01*
D46*
X-1369Y-614D02*
Y-716D01*
X-1470Y-614D01*
X-1496D01*
X-1521Y-640D01*
Y-690D01*
X-1496Y-716D01*
X-1369Y-563D02*
Y-513D01*
Y-538D01*
X-1521D01*
X-1496Y-563D01*
X-1369Y-436D02*
X-1394D01*
Y-411D01*
X-1369D01*
Y-436D01*
X-1394Y-309D02*
X-1369Y-284D01*
Y-233D01*
X-1394Y-208D01*
X-1496D01*
X-1521Y-233D01*
Y-284D01*
X-1496Y-309D01*
X-1470D01*
X-1445Y-284D01*
Y-208D01*
X-1496Y-157D02*
X-1521Y-132D01*
Y-81D01*
X-1496Y-56D01*
X-1394D01*
X-1369Y-81D01*
Y-132D01*
X-1394Y-157D01*
X-1496D01*
X-321Y1109D02*
X-270D01*
X-295D01*
Y1261D01*
X-321Y1236D01*
X-194Y1261D02*
X-92D01*
Y1236D01*
X-194Y1134D01*
Y1109D01*
X-41D02*
Y1134D01*
X-16D01*
Y1109D01*
X-41D01*
X86Y1236D02*
X111Y1261D01*
X162D01*
X187Y1236D01*
Y1134D01*
X162Y1109D01*
X111D01*
X86Y1134D01*
Y1236D01*
X238D02*
X263Y1261D01*
X314D01*
X339Y1236D01*
Y1134D01*
X314Y1109D01*
X263D01*
X238Y1134D01*
Y1236D01*
M02*
