%FSLAX42Y42*%
%MOMM*%
G71*
G01*
G75*
G04 Layer_Color=8388736*
%ADD10R,0.60X1.55*%
%ADD11R,0.89X0.89*%
%ADD12R,0.89X0.89*%
%ADD13R,1.10X2.50*%
%ADD14C,0.56*%
%ADD15C,0.61*%
%ADD16C,0.72*%
%ADD17R,0.60X2.20*%
%ADD18R,1.10X1.70*%
%ADD19R,1.70X1.10*%
%ADD20C,0.50*%
%ADD21C,0.25*%
%ADD22C,2.00*%
%ADD23R,1.50X1.50*%
%ADD24C,1.50*%
%ADD25C,1.22*%
%ADD26C,0.70*%
%ADD27C,0.25*%
%ADD28C,0.20*%
%ADD29C,0.10*%
%ADD30R,0.80X1.75*%
%ADD31R,1.09X1.09*%
%ADD32R,1.09X1.09*%
%ADD33R,1.30X2.70*%
%ADD34C,0.77*%
%ADD35C,0.82*%
%ADD36C,0.93*%
%ADD37R,0.80X2.40*%
%ADD38R,1.30X1.90*%
%ADD39R,1.90X1.30*%
%ADD40C,2.20*%
%ADD41R,1.70X1.70*%
%ADD42C,1.70*%
%ADD43C,1.43*%
%ADD44C,0.90*%
D30*
X575Y472D02*
D03*
X385D02*
D03*
X480Y247D02*
D03*
D31*
X750Y460D02*
D03*
Y303D02*
D03*
X90Y-550D02*
D03*
Y-707D02*
D03*
X260Y-710D02*
D03*
Y-553D02*
D03*
D32*
X-140Y630D02*
D03*
X17D02*
D03*
X-360Y-280D02*
D03*
X-518D02*
D03*
X-520Y-420D02*
D03*
X-362D02*
D03*
D33*
X430Y-70D02*
D03*
X760D02*
D03*
D34*
X98Y-64D02*
D03*
X-105D02*
D03*
D35*
X-3Y210D02*
D03*
D36*
X93D02*
D03*
X-100D02*
D03*
D37*
X-110Y-660D02*
D03*
X-237D02*
D03*
X-363D02*
D03*
X-491D02*
D03*
X-110Y-1140D02*
D03*
X-237D02*
D03*
X-363D02*
D03*
X-491D02*
D03*
D38*
X430Y-900D02*
D03*
X100D02*
D03*
X90Y420D02*
D03*
X-240D02*
D03*
X260Y-360D02*
D03*
X-70D02*
D03*
D39*
X-360Y210D02*
D03*
Y-120D02*
D03*
D40*
X450Y-1220D02*
D03*
X-570Y490D02*
D03*
D41*
X710Y-890D02*
D03*
D42*
Y-636D02*
D03*
Y-382D02*
D03*
D43*
X-3Y-0D02*
D03*
D44*
X-670Y-50D02*
D03*
Y60D02*
D03*
Y180D02*
D03*
X690Y630D02*
D03*
X600D02*
D03*
X-520Y-150D02*
D03*
X-240Y-1370D02*
D03*
M02*
