%FSLAX42Y42*%
%MOMM*%
G71*
G01*
G75*
G04 Layer_Physical_Order=2*
G04 Layer_Color=16711680*
%ADD10R,0.60X1.55*%
%ADD11R,0.89X0.89*%
%ADD12R,0.89X0.89*%
%ADD13R,1.10X2.50*%
%ADD14C,0.56*%
%ADD15C,0.61*%
%ADD16C,0.72*%
%ADD17R,0.60X2.20*%
%ADD18R,1.10X1.70*%
%ADD19R,1.70X1.10*%
%ADD20C,0.50*%
%ADD21C,0.25*%
%ADD22C,2.00*%
%ADD23R,1.50X1.50*%
%ADD24C,1.50*%
%ADD25C,1.22*%
%ADD26C,0.70*%
G36*
X770Y-150D02*
X800Y-180D01*
Y-400D01*
Y-400D01*
X720Y-480D01*
X700Y-500D01*
X180D01*
X80Y-600D01*
X-70Y-750D01*
Y-1290D01*
Y-1290D01*
X-187Y-1407D01*
X-193D01*
X-200Y-1400D01*
X-320D01*
Y-1370D01*
X-380Y-1310D01*
X-400Y-1290D01*
Y-670D01*
Y-520D01*
X-570Y-350D01*
Y-110D01*
X-560Y-100D01*
X720D01*
X770Y-150D01*
D02*
G37*
G36*
X780Y713D02*
X809Y701D01*
X833Y683D01*
X851Y659D01*
X863Y630D01*
X867Y601D01*
X867Y600D01*
X867D01*
X867Y600D01*
Y-1300D01*
X867Y-1301D01*
X863Y-1328D01*
X853Y-1353D01*
X836Y-1376D01*
X813Y-1393D01*
X788Y-1403D01*
X761Y-1407D01*
X760Y-1407D01*
X-141D01*
X-146Y-1395D01*
X-56Y-1304D01*
X-51Y-1298D01*
X-50Y-1290D01*
Y-1290D01*
Y-758D01*
X94Y-614D01*
X94Y-614D01*
X188Y-520D01*
X700D01*
X708Y-519D01*
X714Y-514D01*
X734Y-494D01*
X734Y-494D01*
X814Y-414D01*
X819Y-408D01*
X820Y-400D01*
Y-400D01*
Y-180D01*
X820Y-180D01*
X819Y-172D01*
X814Y-166D01*
X814Y-166D01*
X784Y-136D01*
X734Y-86D01*
X728Y-81D01*
X720Y-80D01*
X-560D01*
X-560Y-80D01*
X-568Y-81D01*
X-574Y-86D01*
X-574Y-86D01*
X-584Y-96D01*
X-589Y-102D01*
X-590Y-110D01*
Y-350D01*
X-589Y-358D01*
X-584Y-364D01*
X-584Y-364D01*
X-420Y-528D01*
Y-670D01*
Y-1290D01*
X-419Y-1298D01*
X-414Y-1304D01*
X-394Y-1324D01*
X-394Y-1324D01*
X-340Y-1378D01*
Y-1400D01*
X-346Y-1407D01*
X-650D01*
X-651Y-1407D01*
X-680Y-1403D01*
X-709Y-1391D01*
X-733Y-1373D01*
X-751Y-1349D01*
X-763Y-1320D01*
X-767Y-1291D01*
X-767Y-1290D01*
X-767D01*
X-767Y-1290D01*
Y600D01*
X-767Y601D01*
X-763Y630D01*
X-751Y659D01*
X-733Y683D01*
X-709Y701D01*
X-680Y713D01*
X-651Y717D01*
X-650Y717D01*
Y717D01*
X-650Y717D01*
X750D01*
X751Y717D01*
X780Y713D01*
D02*
G37*
%LPC*%
G36*
X450Y-1099D02*
X419Y-1103D01*
X389Y-1115D01*
X364Y-1134D01*
X345Y-1159D01*
X333Y-1189D01*
X329Y-1220D01*
X333Y-1251D01*
X345Y-1281D01*
X364Y-1306D01*
X389Y-1325D01*
X419Y-1337D01*
X450Y-1341D01*
X481Y-1337D01*
X511Y-1325D01*
X536Y-1306D01*
X555Y-1281D01*
X567Y-1251D01*
X571Y-1220D01*
X567Y-1189D01*
X555Y-1159D01*
X536Y-1134D01*
X511Y-1115D01*
X481Y-1103D01*
X450Y-1099D01*
D02*
G37*
G36*
X-570Y611D02*
X-601Y607D01*
X-631Y595D01*
X-656Y576D01*
X-675Y551D01*
X-687Y521D01*
X-691Y490D01*
X-687Y459D01*
X-675Y429D01*
X-656Y404D01*
X-631Y385D01*
X-601Y373D01*
X-570Y369D01*
X-539Y373D01*
X-509Y385D01*
X-484Y404D01*
X-465Y429D01*
X-453Y459D01*
X-449Y490D01*
X-453Y521D01*
X-465Y551D01*
X-484Y576D01*
X-509Y595D01*
X-539Y607D01*
X-570Y611D01*
D02*
G37*
G36*
X805Y-795D02*
X615D01*
Y-985D01*
X805D01*
Y-795D01*
D02*
G37*
%LPD*%
D22*
X450Y-1220D02*
D03*
X-570Y490D02*
D03*
D23*
X710Y-890D02*
D03*
D24*
Y-636D02*
D03*
Y-382D02*
D03*
D25*
X-3Y-0D02*
D03*
D26*
X-670Y-50D02*
D03*
Y60D02*
D03*
Y180D02*
D03*
X690Y630D02*
D03*
X600D02*
D03*
X-520Y-150D02*
D03*
X-240Y-1370D02*
D03*
M02*
