%FSLAX42Y42*%
%MOMM*%
G71*
G01*
G75*
%ADD10R,0.60X1.55*%
%ADD11R,0.89X0.89*%
%ADD12R,0.89X0.89*%
%ADD13R,1.10X2.50*%
%ADD14C,0.56*%
%ADD15C,0.61*%
%ADD16C,0.72*%
%ADD17R,0.60X2.20*%
%ADD18R,1.10X1.70*%
%ADD19R,1.70X1.10*%
%ADD20C,0.50*%
%ADD21C,0.25*%
%ADD22C,2.00*%
%ADD23R,1.50X1.50*%
%ADD24C,1.50*%
%ADD25C,1.22*%
%ADD26C,0.70*%
D10*
X575Y472D02*
D03*
X385D02*
D03*
X480Y247D02*
D03*
D11*
X750Y460D02*
D03*
Y303D02*
D03*
X90Y-550D02*
D03*
Y-707D02*
D03*
X260Y-710D02*
D03*
Y-553D02*
D03*
D12*
X-140Y630D02*
D03*
X17D02*
D03*
X-360Y-280D02*
D03*
X-518D02*
D03*
X-520Y-420D02*
D03*
X-362D02*
D03*
D13*
X430Y-70D02*
D03*
X760D02*
D03*
D14*
X98Y-64D02*
D03*
X-105D02*
D03*
D15*
X-3Y210D02*
D03*
D16*
X93D02*
D03*
X-100D02*
D03*
D17*
X-110Y-660D02*
D03*
X-237D02*
D03*
X-363D02*
D03*
X-491D02*
D03*
X-110Y-1140D02*
D03*
X-237D02*
D03*
X-363D02*
D03*
X-491D02*
D03*
D18*
X430Y-900D02*
D03*
X100D02*
D03*
X90Y420D02*
D03*
X-240D02*
D03*
X260Y-360D02*
D03*
X-70D02*
D03*
D19*
X-360Y210D02*
D03*
Y-120D02*
D03*
D22*
X450Y-1220D02*
D03*
X-570Y490D02*
D03*
D23*
X710Y-890D02*
D03*
D24*
Y-636D02*
D03*
Y-382D02*
D03*
D25*
X-3Y-0D02*
D03*
M02*
