%FSLAX42Y42*%
%MOMM*%
G71*
G01*
G75*
G04 Layer_Color=2752767*
%ADD10R,0.60X1.55*%
%ADD11R,0.89X0.89*%
%ADD12R,0.89X0.89*%
%ADD13R,1.10X2.50*%
%ADD14C,0.56*%
%ADD15C,0.61*%
%ADD16C,0.72*%
%ADD17R,0.60X2.20*%
%ADD18R,1.10X1.70*%
%ADD19R,1.70X1.10*%
%ADD20C,0.50*%
%ADD21C,0.25*%
%ADD22C,2.00*%
%ADD23R,1.50X1.50*%
%ADD24C,1.50*%
%ADD25C,1.22*%
%ADD26C,0.70*%
%ADD27C,0.25*%
%ADD28C,0.20*%
%ADD29C,0.10*%
%ADD30R,0.80X1.75*%
%ADD31R,1.09X1.09*%
%ADD32R,1.09X1.09*%
%ADD33R,1.30X2.70*%
%ADD34C,0.77*%
%ADD35C,0.82*%
%ADD36C,0.93*%
%ADD37R,0.80X2.40*%
%ADD38R,1.30X1.90*%
%ADD39R,1.90X1.30*%
%ADD40C,2.20*%
%ADD41R,1.70X1.70*%
%ADD42C,1.70*%
%ADD43C,1.43*%
%ADD44C,0.90*%
%ADD45C,0.05*%
%ADD46C,0.15*%
%ADD47C,0.13*%
%ADD48C,0.17*%
%ADD49C,0.41*%
%ADD50C,0.20*%
D21*
X2508Y-1594D02*
Y-1746D01*
X2584D01*
X2610Y-1721D01*
Y-1619D01*
X2584Y-1594D01*
X2508D01*
X2660Y-1644D02*
Y-1746D01*
Y-1695D01*
X2686Y-1670D01*
X2711Y-1644D01*
X2737D01*
X2813Y-1746D02*
X2863D01*
X2838D01*
Y-1644D01*
X2813D01*
X2940Y-1746D02*
X2990D01*
X2965D01*
Y-1594D01*
X2940D01*
X3067Y-1746D02*
X3117D01*
X3092D01*
Y-1594D01*
X3067D01*
X3346D02*
Y-1746D01*
X3422D01*
X3447Y-1721D01*
Y-1619D01*
X3422Y-1594D01*
X3346D01*
X3498Y-1644D02*
Y-1746D01*
Y-1695D01*
X3524Y-1670D01*
X3549Y-1644D01*
X3574D01*
X3676D02*
X3727D01*
X3752Y-1670D01*
Y-1746D01*
X3676D01*
X3651Y-1721D01*
X3676Y-1695D01*
X3752D01*
X3803Y-1644D02*
Y-1721D01*
X3828Y-1746D01*
X3854Y-1721D01*
X3879Y-1746D01*
X3905Y-1721D01*
Y-1644D01*
X3955Y-1746D02*
X4006D01*
X3981D01*
Y-1644D01*
X3955D01*
X4082Y-1746D02*
Y-1644D01*
X4158D01*
X4184Y-1670D01*
Y-1746D01*
X4285Y-1797D02*
X4311D01*
X4336Y-1771D01*
Y-1644D01*
X4260D01*
X4235Y-1670D01*
Y-1721D01*
X4260Y-1746D01*
X4336D01*
X4387D02*
Y-1721D01*
X4412D01*
Y-1746D01*
X4387D01*
X3788Y-120D02*
X3889D01*
Y-146D01*
X3788Y-247D01*
Y-273D01*
X5555Y-146D02*
X5581Y-120D01*
X5631D01*
X5657Y-146D01*
Y-247D01*
X5631Y-273D01*
X5581D01*
X5555Y-247D01*
Y-146D01*
X5708Y-273D02*
Y-247D01*
X5733D01*
Y-273D01*
X5708D01*
X5911D02*
Y-120D01*
X5835Y-197D01*
X5936D01*
X5987Y-273D02*
Y-171D01*
X6012D01*
X6038Y-197D01*
Y-273D01*
Y-197D01*
X6063Y-171D01*
X6088Y-197D01*
Y-273D01*
X6139D02*
Y-171D01*
X6165D01*
X6190Y-197D01*
Y-273D01*
Y-197D01*
X6215Y-171D01*
X6241Y-197D01*
Y-273D01*
X6495D02*
X6444Y-222D01*
Y-171D01*
X6495Y-120D01*
X6571Y-273D02*
X6622D01*
X6596D01*
Y-120D01*
X6571Y-146D01*
X6799Y-120D02*
X6698D01*
Y-197D01*
X6749Y-171D01*
X6774D01*
X6799Y-197D01*
Y-247D01*
X6774Y-273D01*
X6723D01*
X6698Y-247D01*
X6850Y-273D02*
Y-247D01*
X6876D01*
Y-273D01*
X6850D01*
X6977Y-120D02*
X7079D01*
Y-146D01*
X6977Y-247D01*
Y-273D01*
X7206D02*
Y-120D01*
X7130Y-197D01*
X7231D01*
X7282Y-146D02*
X7307Y-120D01*
X7358D01*
X7383Y-146D01*
Y-171D01*
X7358Y-197D01*
X7383Y-222D01*
Y-247D01*
X7358Y-273D01*
X7307D01*
X7282Y-247D01*
Y-222D01*
X7307Y-197D01*
X7282Y-171D01*
Y-146D01*
X7307Y-197D02*
X7358D01*
X7434Y-273D02*
Y-171D01*
X7460D01*
X7485Y-197D01*
Y-273D01*
Y-197D01*
X7510Y-171D01*
X7536Y-197D01*
Y-273D01*
X7587D02*
X7637D01*
X7612D01*
Y-171D01*
X7587D01*
X7714Y-273D02*
X7764D01*
X7739D01*
Y-120D01*
X7714D01*
X7840Y-273D02*
X7891Y-222D01*
Y-171D01*
X7840Y-120D01*
X8968Y-273D02*
Y-120D01*
X9044D01*
X9070Y-146D01*
Y-197D01*
X9044Y-222D01*
X8968D01*
X9120Y-120D02*
X9222D01*
X9171D01*
Y-273D01*
X9273Y-120D02*
Y-273D01*
Y-197D01*
X9374D01*
Y-120D01*
Y-273D01*
X10248D02*
Y-120D01*
X10324D01*
X10349Y-146D01*
Y-197D01*
X10324Y-222D01*
X10248D01*
X10299D02*
X10349Y-273D01*
X10426D02*
X10476D01*
X10502Y-247D01*
Y-197D01*
X10476Y-171D01*
X10426D01*
X10400Y-197D01*
Y-247D01*
X10426Y-273D01*
X10553Y-171D02*
Y-247D01*
X10578Y-273D01*
X10654D01*
Y-171D01*
X10705Y-273D02*
Y-171D01*
X10781D01*
X10806Y-197D01*
Y-273D01*
X10959Y-120D02*
Y-273D01*
X10883D01*
X10857Y-247D01*
Y-197D01*
X10883Y-171D01*
X10959D01*
X3788Y-578D02*
X3839D01*
X3813D01*
Y-425D01*
X3788Y-451D01*
X5555D02*
X5581Y-425D01*
X5631D01*
X5657Y-451D01*
Y-552D01*
X5631Y-578D01*
X5581D01*
X5555Y-552D01*
Y-451D01*
X5708Y-578D02*
Y-552D01*
X5733D01*
Y-578D01*
X5708D01*
X5936Y-425D02*
X5885Y-451D01*
X5835Y-501D01*
Y-552D01*
X5860Y-578D01*
X5911D01*
X5936Y-552D01*
Y-527D01*
X5911Y-501D01*
X5835D01*
X5987Y-578D02*
X6038D01*
X6012D01*
Y-425D01*
X5987Y-451D01*
X6114Y-578D02*
Y-476D01*
X6139D01*
X6165Y-501D01*
Y-578D01*
Y-501D01*
X6190Y-476D01*
X6215Y-501D01*
Y-578D01*
X6266D02*
Y-476D01*
X6292D01*
X6317Y-501D01*
Y-578D01*
Y-501D01*
X6342Y-476D01*
X6368Y-501D01*
Y-578D01*
X6622D02*
X6571Y-527D01*
Y-476D01*
X6622Y-425D01*
X6799Y-578D02*
X6698D01*
X6799Y-476D01*
Y-451D01*
X6774Y-425D01*
X6723D01*
X6698Y-451D01*
X6926Y-578D02*
Y-425D01*
X6850Y-501D01*
X6952D01*
X7003Y-578D02*
Y-552D01*
X7028D01*
Y-578D01*
X7003D01*
X7130Y-451D02*
X7155Y-425D01*
X7206D01*
X7231Y-451D01*
Y-552D01*
X7206Y-578D01*
X7155D01*
X7130Y-552D01*
Y-451D01*
X7282Y-578D02*
X7333D01*
X7307D01*
Y-425D01*
X7282Y-451D01*
X7510Y-425D02*
X7460Y-451D01*
X7409Y-501D01*
Y-552D01*
X7434Y-578D01*
X7485D01*
X7510Y-552D01*
Y-527D01*
X7485Y-501D01*
X7409D01*
X7561Y-578D02*
Y-476D01*
X7587D01*
X7612Y-501D01*
Y-578D01*
Y-501D01*
X7637Y-476D01*
X7663Y-501D01*
Y-578D01*
X7714D02*
X7764D01*
X7739D01*
Y-476D01*
X7714D01*
X7840Y-578D02*
X7891D01*
X7866D01*
Y-425D01*
X7840D01*
X7967Y-578D02*
X8018Y-527D01*
Y-476D01*
X7967Y-425D01*
X8968Y-578D02*
Y-425D01*
X9044D01*
X9070Y-451D01*
Y-501D01*
X9044Y-527D01*
X8968D01*
X9120Y-425D02*
X9222D01*
X9171D01*
Y-578D01*
X9273Y-425D02*
Y-578D01*
Y-501D01*
X9374D01*
Y-425D01*
Y-578D01*
X10248D02*
Y-425D01*
X10324D01*
X10349Y-451D01*
Y-501D01*
X10324Y-527D01*
X10248D01*
X10299D02*
X10349Y-578D01*
X10426D02*
X10476D01*
X10502Y-552D01*
Y-501D01*
X10476Y-476D01*
X10426D01*
X10400Y-501D01*
Y-552D01*
X10426Y-578D01*
X10553Y-476D02*
Y-552D01*
X10578Y-578D01*
X10654D01*
Y-476D01*
X10705Y-578D02*
Y-476D01*
X10781D01*
X10806Y-501D01*
Y-578D01*
X10959Y-425D02*
Y-578D01*
X10883D01*
X10857Y-552D01*
Y-501D01*
X10883Y-476D01*
X10959D01*
X3788Y-755D02*
X3813Y-730D01*
X3864D01*
X3889Y-755D01*
Y-781D01*
X3864Y-806D01*
X3839D01*
X3864D01*
X3889Y-832D01*
Y-857D01*
X3864Y-882D01*
X3813D01*
X3788Y-857D01*
X5555Y-755D02*
X5581Y-730D01*
X5631D01*
X5657Y-755D01*
Y-857D01*
X5631Y-882D01*
X5581D01*
X5555Y-857D01*
Y-755D01*
X5708Y-882D02*
Y-857D01*
X5733D01*
Y-882D01*
X5708D01*
X5835Y-857D02*
X5860Y-882D01*
X5911D01*
X5936Y-857D01*
Y-755D01*
X5911Y-730D01*
X5860D01*
X5835Y-755D01*
Y-781D01*
X5860Y-806D01*
X5936D01*
X5987Y-882D02*
Y-781D01*
X6012D01*
X6038Y-806D01*
Y-882D01*
Y-806D01*
X6063Y-781D01*
X6088Y-806D01*
Y-882D01*
X6139D02*
Y-781D01*
X6165D01*
X6190Y-806D01*
Y-882D01*
Y-806D01*
X6215Y-781D01*
X6241Y-806D01*
Y-882D01*
X6495D02*
X6444Y-832D01*
Y-781D01*
X6495Y-730D01*
X6571Y-755D02*
X6596Y-730D01*
X6647D01*
X6672Y-755D01*
Y-781D01*
X6647Y-806D01*
X6622D01*
X6647D01*
X6672Y-832D01*
Y-857D01*
X6647Y-882D01*
X6596D01*
X6571Y-857D01*
X6825Y-730D02*
X6723D01*
Y-806D01*
X6774Y-781D01*
X6799D01*
X6825Y-806D01*
Y-857D01*
X6799Y-882D01*
X6749D01*
X6723Y-857D01*
X6876Y-882D02*
Y-857D01*
X6901D01*
Y-882D01*
X6876D01*
X7079D02*
Y-730D01*
X7003Y-806D01*
X7104D01*
X7155Y-755D02*
X7180Y-730D01*
X7231D01*
X7256Y-755D01*
Y-781D01*
X7231Y-806D01*
X7206D01*
X7231D01*
X7256Y-832D01*
Y-857D01*
X7231Y-882D01*
X7180D01*
X7155Y-857D01*
X7307Y-755D02*
X7333Y-730D01*
X7383D01*
X7409Y-755D01*
Y-781D01*
X7383Y-806D01*
X7358D01*
X7383D01*
X7409Y-832D01*
Y-857D01*
X7383Y-882D01*
X7333D01*
X7307Y-857D01*
X7460Y-882D02*
Y-781D01*
X7485D01*
X7510Y-806D01*
Y-882D01*
Y-806D01*
X7536Y-781D01*
X7561Y-806D01*
Y-882D01*
X7612D02*
X7663D01*
X7637D01*
Y-781D01*
X7612D01*
X7739Y-882D02*
X7790D01*
X7764D01*
Y-730D01*
X7739D01*
X7866Y-882D02*
X7917Y-832D01*
Y-781D01*
X7866Y-730D01*
X8968Y-882D02*
Y-730D01*
X9044D01*
X9070Y-755D01*
Y-806D01*
X9044Y-832D01*
X8968D01*
X9120Y-730D02*
X9222D01*
X9171D01*
Y-882D01*
X9273Y-730D02*
Y-882D01*
Y-806D01*
X9374D01*
Y-730D01*
Y-882D01*
X10248D02*
Y-730D01*
X10324D01*
X10349Y-755D01*
Y-806D01*
X10324Y-832D01*
X10248D01*
X10299D02*
X10349Y-882D01*
X10426D02*
X10476D01*
X10502Y-857D01*
Y-806D01*
X10476Y-781D01*
X10426D01*
X10400Y-806D01*
Y-857D01*
X10426Y-882D01*
X10553Y-781D02*
Y-857D01*
X10578Y-882D01*
X10654D01*
Y-781D01*
X10705Y-882D02*
Y-781D01*
X10781D01*
X10806Y-806D01*
Y-882D01*
X10959Y-730D02*
Y-882D01*
X10883D01*
X10857Y-857D01*
Y-806D01*
X10883Y-781D01*
X10959D01*
X3889Y-1187D02*
X3788D01*
X3889Y-1086D01*
Y-1060D01*
X3864Y-1035D01*
X3813D01*
X3788Y-1060D01*
X5657Y-1187D02*
X5555D01*
X5657Y-1086D01*
Y-1060D01*
X5631Y-1035D01*
X5581D01*
X5555Y-1060D01*
X5708Y-1187D02*
Y-1086D01*
X5733D01*
X5758Y-1111D01*
Y-1187D01*
Y-1111D01*
X5784Y-1086D01*
X5809Y-1111D01*
Y-1187D01*
X5860D02*
Y-1086D01*
X5885D01*
X5911Y-1111D01*
Y-1187D01*
Y-1111D01*
X5936Y-1086D01*
X5961Y-1111D01*
Y-1187D01*
X6215D02*
X6165Y-1136D01*
Y-1086D01*
X6215Y-1035D01*
X6292D02*
X6393D01*
Y-1060D01*
X6292Y-1162D01*
Y-1187D01*
X6444Y-1060D02*
X6469Y-1035D01*
X6520D01*
X6545Y-1060D01*
Y-1086D01*
X6520Y-1111D01*
X6545Y-1136D01*
Y-1162D01*
X6520Y-1187D01*
X6469D01*
X6444Y-1162D01*
Y-1136D01*
X6469Y-1111D01*
X6444Y-1086D01*
Y-1060D01*
X6469Y-1111D02*
X6520D01*
X6596Y-1187D02*
Y-1162D01*
X6622D01*
Y-1187D01*
X6596D01*
X6723Y-1035D02*
X6825D01*
Y-1060D01*
X6723Y-1162D01*
Y-1187D01*
X6952D02*
Y-1035D01*
X6876Y-1111D01*
X6977D01*
X7028Y-1187D02*
Y-1086D01*
X7053D01*
X7079Y-1111D01*
Y-1187D01*
Y-1111D01*
X7104Y-1086D01*
X7130Y-1111D01*
Y-1187D01*
X7180D02*
X7231D01*
X7206D01*
Y-1086D01*
X7180D01*
X7307Y-1187D02*
X7358D01*
X7333D01*
Y-1035D01*
X7307D01*
X7434Y-1187D02*
X7485Y-1136D01*
Y-1086D01*
X7434Y-1035D01*
X8968Y-1187D02*
Y-1035D01*
X9044D01*
X9070Y-1060D01*
Y-1111D01*
X9044Y-1136D01*
X8968D01*
X9120Y-1035D02*
X9222D01*
X9171D01*
Y-1187D01*
X9273Y-1035D02*
Y-1187D01*
Y-1111D01*
X9374D01*
Y-1035D01*
Y-1187D01*
X10248D02*
Y-1035D01*
X10324D01*
X10349Y-1060D01*
Y-1111D01*
X10324Y-1136D01*
X10248D01*
X10299D02*
X10349Y-1187D01*
X10426D02*
X10476D01*
X10502Y-1162D01*
Y-1111D01*
X10476Y-1086D01*
X10426D01*
X10400Y-1111D01*
Y-1162D01*
X10426Y-1187D01*
X10553Y-1086D02*
Y-1162D01*
X10578Y-1187D01*
X10654D01*
Y-1086D01*
X10705Y-1187D02*
Y-1086D01*
X10781D01*
X10806Y-1111D01*
Y-1187D01*
X10959Y-1035D02*
Y-1187D01*
X10883D01*
X10857Y-1162D01*
Y-1111D01*
X10883Y-1086D01*
X10959D01*
X3788Y-1492D02*
X3839D01*
X3813D01*
Y-1340D01*
X3788Y-1365D01*
X3915D02*
X3940Y-1340D01*
X3991D01*
X4016Y-1365D01*
Y-1390D01*
X3991Y-1416D01*
X3966D01*
X3991D01*
X4016Y-1441D01*
Y-1467D01*
X3991Y-1492D01*
X3940D01*
X3915Y-1467D01*
X4291Y-1340D02*
X4392D01*
X4341D01*
Y-1492D01*
X4468D02*
X4519D01*
X4545Y-1467D01*
Y-1416D01*
X4519Y-1390D01*
X4468D01*
X4443Y-1416D01*
Y-1467D01*
X4468Y-1492D01*
X4621Y-1365D02*
Y-1390D01*
X4595D01*
X4646D01*
X4621D01*
Y-1467D01*
X4646Y-1492D01*
X4748Y-1390D02*
X4799D01*
X4824Y-1416D01*
Y-1492D01*
X4748D01*
X4722Y-1467D01*
X4748Y-1441D01*
X4824D01*
X4875Y-1492D02*
X4925D01*
X4900D01*
Y-1340D01*
X4875D01*
D47*
X399Y-1271D02*
Y-1169D01*
X501D01*
Y-1271D01*
X399D01*
X-621Y439D02*
Y541D01*
X-519D01*
Y439D01*
X-621D01*
X-3Y-51D02*
X-54Y50D01*
X47D01*
X-3Y-51D01*
X-670Y-101D02*
X-645Y-75D01*
X-619D01*
X-645Y-50D01*
X-619Y-25D01*
X-645D01*
X-670Y1D01*
X-695Y-25D01*
X-721D01*
X-695Y-50D01*
X-721Y-75D01*
X-695D01*
X-670Y-101D01*
Y9D02*
X-645Y35D01*
X-619D01*
X-645Y60D01*
X-619Y85D01*
X-645D01*
X-670Y111D01*
X-695Y85D01*
X-721D01*
X-695Y60D01*
X-721Y35D01*
X-695D01*
X-670Y9D01*
Y129D02*
X-645Y155D01*
X-619D01*
X-645Y180D01*
X-619Y205D01*
X-645D01*
X-670Y231D01*
X-695Y205D01*
X-721D01*
X-695Y180D01*
X-721Y155D01*
X-695D01*
X-670Y129D01*
X690Y579D02*
X715Y605D01*
X741D01*
X715Y630D01*
X741Y655D01*
X715D01*
X690Y681D01*
X665Y655D01*
X639D01*
X665Y630D01*
X639Y605D01*
X665D01*
X690Y579D01*
X600D02*
X625Y605D01*
X651D01*
X625Y630D01*
X651Y655D01*
X625D01*
X600Y681D01*
X575Y655D01*
X549D01*
X575Y630D01*
X549Y605D01*
X575D01*
X600Y579D01*
X-520Y-201D02*
X-495Y-175D01*
X-469D01*
X-495Y-150D01*
X-469Y-125D01*
X-495D01*
X-520Y-99D01*
X-545Y-125D01*
X-571D01*
X-545Y-150D01*
X-571Y-175D01*
X-545D01*
X-520Y-201D01*
X-240Y-1421D02*
X-215Y-1395D01*
X-189D01*
X-215Y-1370D01*
X-189Y-1345D01*
X-215D01*
X-240Y-1319D01*
X-265Y-1345D01*
X-291D01*
X-265Y-1370D01*
X-291Y-1395D01*
X-265D01*
X-240Y-1421D01*
X2569Y-258D02*
X2599Y-227D01*
X2630D01*
X2599Y-197D01*
X2630Y-166D01*
X2599D01*
X2569Y-136D01*
X2538Y-166D01*
X2508D01*
X2538Y-197D01*
X2508Y-227D01*
X2538D01*
X2569Y-258D01*
Y-562D02*
X2508Y-440D01*
X2630D01*
X2569Y-562D01*
X2508Y-1172D02*
Y-1050D01*
X2630D01*
Y-1172D01*
X2508D01*
D48*
X761Y-890D02*
G03*
X761Y-890I-51J0D01*
G01*
Y-636D02*
G03*
X761Y-636I-51J0D01*
G01*
Y-382D02*
G03*
X761Y-382I-51J0D01*
G01*
D49*
X2630Y245D02*
X2599Y276D01*
X2538D01*
X2508Y245D01*
Y215D01*
X2538Y184D01*
X2599D01*
X2630Y154D01*
Y123D01*
X2599Y93D01*
X2538D01*
X2508Y123D01*
X2691Y215D02*
Y123D01*
X2721Y93D01*
X2813D01*
Y62D01*
X2782Y32D01*
X2752D01*
X2813Y93D02*
Y215D01*
X2874Y93D02*
Y215D01*
X2904D01*
X2935Y184D01*
Y93D01*
Y184D01*
X2965Y215D01*
X2996Y184D01*
Y93D01*
X3056Y276D02*
Y93D01*
X3148D01*
X3178Y123D01*
Y154D01*
Y184D01*
X3148Y215D01*
X3056D01*
X3270Y93D02*
X3331D01*
X3361Y123D01*
Y184D01*
X3331Y215D01*
X3270D01*
X3239Y184D01*
Y123D01*
X3270Y93D01*
X3422D02*
X3483D01*
X3453D01*
Y276D01*
X3422D01*
X3788D02*
Y93D01*
Y184D01*
X3910D01*
Y276D01*
Y93D01*
X3971D02*
X4032D01*
X4001D01*
Y215D01*
X3971D01*
X4153Y245D02*
Y215D01*
X4123D01*
X4184D01*
X4153D01*
Y123D01*
X4184Y93D01*
X4580Y245D02*
X4550Y276D01*
X4489D01*
X4458Y245D01*
Y123D01*
X4489Y93D01*
X4550D01*
X4580Y123D01*
X4671Y93D02*
X4732D01*
X4763Y123D01*
Y184D01*
X4732Y215D01*
X4671D01*
X4641Y184D01*
Y123D01*
X4671Y93D01*
X4824Y215D02*
Y123D01*
X4854Y93D01*
X4946D01*
Y215D01*
X5007Y93D02*
Y215D01*
X5098D01*
X5129Y184D01*
Y93D01*
X5220Y245D02*
Y215D01*
X5189D01*
X5250D01*
X5220D01*
Y123D01*
X5250Y93D01*
X5677Y276D02*
X5555D01*
Y184D01*
X5616D01*
X5555D01*
Y93D01*
X5738D02*
X5799D01*
X5769D01*
Y215D01*
X5738D01*
X5890Y93D02*
Y215D01*
X5982D01*
X6012Y184D01*
Y93D01*
X6073D02*
X6134D01*
X6104D01*
Y215D01*
X6073D01*
X6226Y93D02*
X6317D01*
X6347Y123D01*
X6317Y154D01*
X6256D01*
X6226Y184D01*
X6256Y215D01*
X6347D01*
X6408Y276D02*
Y93D01*
Y184D01*
X6439Y215D01*
X6500D01*
X6530Y184D01*
Y93D01*
X6683D02*
X6622D01*
X6591Y123D01*
Y184D01*
X6622Y215D01*
X6683D01*
X6713Y184D01*
Y154D01*
X6591D01*
X6896Y276D02*
Y93D01*
X6804D01*
X6774Y123D01*
Y184D01*
X6804Y215D01*
X6896D01*
X7140Y276D02*
Y93D01*
Y184D01*
X7262D01*
Y276D01*
Y93D01*
X7353D02*
X7414D01*
X7444Y123D01*
Y184D01*
X7414Y215D01*
X7353D01*
X7322Y184D01*
Y123D01*
X7353Y93D01*
X7505D02*
X7566D01*
X7536D01*
Y276D01*
X7505D01*
X7749Y93D02*
X7688D01*
X7658Y123D01*
Y184D01*
X7688Y215D01*
X7749D01*
X7780Y184D01*
Y154D01*
X7658D01*
X8145Y245D02*
X8115Y276D01*
X8054D01*
X8023Y245D01*
Y215D01*
X8054Y184D01*
X8115D01*
X8145Y154D01*
Y123D01*
X8115Y93D01*
X8054D01*
X8023Y123D01*
X8206Y93D02*
X8267D01*
X8237D01*
Y215D01*
X8206D01*
X8358D02*
X8480D01*
X8358Y93D01*
X8480D01*
X8633D02*
X8572D01*
X8541Y123D01*
Y184D01*
X8572Y215D01*
X8633D01*
X8663Y184D01*
Y154D01*
X8541D01*
X8968Y93D02*
Y276D01*
X9059D01*
X9090Y245D01*
Y184D01*
X9059Y154D01*
X8968D01*
X9151Y93D02*
X9212D01*
X9181D01*
Y276D01*
X9151D01*
X9334Y215D02*
X9395D01*
X9425Y184D01*
Y93D01*
X9334D01*
X9303Y123D01*
X9334Y154D01*
X9425D01*
X9516Y245D02*
Y215D01*
X9486D01*
X9547D01*
X9516D01*
Y123D01*
X9547Y93D01*
X9730D02*
X9669D01*
X9638Y123D01*
Y184D01*
X9669Y215D01*
X9730D01*
X9760Y184D01*
Y154D01*
X9638D01*
X9943Y276D02*
Y93D01*
X9852D01*
X9821Y123D01*
Y184D01*
X9852Y215D01*
X9943D01*
X10248Y276D02*
Y93D01*
Y184D01*
X10370D01*
Y276D01*
Y93D01*
X10461D02*
X10522D01*
X10553Y123D01*
Y184D01*
X10522Y215D01*
X10461D01*
X10431Y184D01*
Y123D01*
X10461Y93D01*
X10613D02*
X10674D01*
X10644D01*
Y276D01*
X10613D01*
X10857Y93D02*
X10796D01*
X10766Y123D01*
Y184D01*
X10796Y215D01*
X10857D01*
X10888Y184D01*
Y154D01*
X10766D01*
X11131Y276D02*
X11253D01*
X11192D01*
Y93D01*
X11314Y215D02*
Y123D01*
X11345Y93D01*
X11436D01*
Y62D01*
X11406Y32D01*
X11375D01*
X11436Y93D02*
Y215D01*
X11497Y32D02*
Y215D01*
X11588D01*
X11619Y184D01*
Y123D01*
X11588Y93D01*
X11497D01*
X11771D02*
X11710D01*
X11680Y123D01*
Y184D01*
X11710Y215D01*
X11771D01*
X11802Y184D01*
Y154D01*
X11680D01*
X2284Y367D02*
X12107D01*
X2284Y-44D02*
X12107D01*
X2284Y367D02*
Y-1568D01*
X12107Y367D02*
Y-1568D01*
X3676Y367D02*
Y-1568D01*
X5443Y367D02*
Y-1568D01*
X8856Y367D02*
Y-1568D01*
X10136Y367D02*
Y-1568D01*
X2284Y-1263D02*
X12107D01*
X2284Y-1568D02*
X12107D01*
D50*
X2630Y-806D02*
G03*
X2630Y-806I-61J0D01*
G01*
M02*
