%FSLAX42Y42*%
%MOMM*%
G71*
G01*
G75*
%ADD10R,0.60X1.55*%
%ADD11R,0.89X0.89*%
%ADD12R,0.89X0.89*%
%ADD13R,1.10X2.50*%
%ADD14C,0.56*%
%ADD15C,0.61*%
%ADD16C,0.72*%
%ADD17R,0.60X2.20*%
%ADD18R,1.10X1.70*%
%ADD19R,1.70X1.10*%
%ADD20C,0.50*%
%ADD21C,0.25*%
%ADD22C,2.00*%
%ADD23R,1.50X1.50*%
%ADD24C,1.50*%
%ADD25C,1.22*%
%ADD26C,0.70*%
%ADD27C,0.25*%
%ADD28C,0.20*%
%ADD29C,0.10*%
D21*
X167Y-130D02*
Y283D01*
X-176D02*
X167D01*
X-176Y-130D02*
X167D01*
X-176D02*
Y283D01*
D27*
X672Y472D02*
G03*
X672Y472I-12J0D01*
G01*
X-12Y-660D02*
G03*
X-12Y-660I-12J0D01*
G01*
D28*
X635Y265D02*
Y355D01*
X550Y265D02*
X635D01*
X325D02*
Y355D01*
Y265D02*
X410D01*
X837Y-1017D02*
Y-255D01*
X583D02*
X837D01*
X583Y-1017D02*
Y-255D01*
Y-1017D02*
X837D01*
X-550Y-810D02*
X-50D01*
X-550Y-990D02*
X-50D01*
Y-810D01*
X-550Y-990D02*
Y-810D01*
D29*
X813Y241D02*
Y521D01*
X688Y241D02*
Y522D01*
X688Y522D02*
X813D01*
X688Y240D02*
X812D01*
X813Y241D01*
X-201Y693D02*
X79D01*
X-202Y568D02*
X79D01*
X-202Y568D02*
Y693D01*
X80Y568D02*
Y692D01*
X79Y693D02*
X80Y692D01*
X836Y-216D02*
Y75D01*
X354D02*
X836D01*
X354Y-216D02*
Y75D01*
Y-216D02*
X836D01*
X-579Y-343D02*
X-299D01*
X-579Y-218D02*
X-298D01*
X-298Y-343D02*
Y-218D01*
X-580Y-342D02*
Y-218D01*
Y-342D02*
X-579Y-343D01*
X24Y-1005D02*
Y-795D01*
Y-1005D02*
X506D01*
Y-795D01*
X24D02*
X506D01*
X-465Y-196D02*
X-255D01*
Y286D01*
X-465D02*
X-255D01*
X-465Y-196D02*
Y286D01*
X-316Y315D02*
Y525D01*
Y315D02*
X166D01*
Y525D01*
X-316D02*
X166D01*
X153Y-769D02*
Y-489D01*
X28Y-769D02*
Y-488D01*
X28Y-488D02*
X153D01*
X28Y-770D02*
X152D01*
X153Y-769D01*
X-581Y-357D02*
X-301D01*
X-582Y-482D02*
X-301D01*
X-582Y-482D02*
Y-357D01*
X-300Y-482D02*
Y-358D01*
X-301Y-357D02*
X-300Y-358D01*
X-146Y-465D02*
Y-255D01*
Y-465D02*
X336D01*
Y-255D01*
X-146D02*
X336D01*
X197Y-771D02*
Y-491D01*
X322Y-772D02*
Y-491D01*
X197Y-772D02*
X322D01*
X198Y-490D02*
X322D01*
X197Y-491D02*
X198Y-490D01*
X85Y-1070D02*
Y-1023D01*
X62Y-1047D02*
X108D01*
X745Y100D02*
Y147D01*
X722Y123D02*
X768D01*
X-85Y-230D02*
Y-183D01*
X-108Y-207D02*
X-62D01*
X-225Y-140D02*
Y-93D01*
X-248Y-117D02*
X-202D01*
X-640Y-1370D02*
X-710D01*
X-687Y-1347D01*
X-710Y-1323D01*
X-640D01*
X-710Y-1253D02*
Y-1300D01*
X-640D01*
Y-1253D01*
X-675Y-1300D02*
Y-1277D01*
X-640Y-1230D02*
X-710D01*
X-687Y-1207D01*
X-710Y-1183D01*
X-640D01*
Y-1160D02*
Y-1125D01*
X-652Y-1113D01*
X-663Y-1125D01*
Y-1148D01*
X-675Y-1160D01*
X-687Y-1148D01*
Y-1113D01*
X-710Y-1020D02*
Y-997D01*
Y-1008D01*
X-640D01*
Y-1020D01*
Y-997D01*
Y-962D02*
X-687D01*
Y-927D01*
X-675Y-915D01*
X-640D01*
X-698Y-880D02*
X-687D01*
Y-892D01*
Y-868D01*
Y-880D01*
X-652D01*
X-640Y-868D01*
Y-799D02*
Y-822D01*
X-652Y-834D01*
X-675D01*
X-687Y-822D01*
Y-799D01*
X-675Y-787D01*
X-663D01*
Y-834D01*
X-687Y-764D02*
X-640D01*
X-663D01*
X-675Y-752D01*
X-687Y-740D01*
Y-729D01*
X-640Y-682D02*
X-698D01*
X-675D01*
Y-694D01*
Y-670D01*
Y-682D01*
X-698D01*
X-710Y-670D01*
X-687Y-624D02*
Y-600D01*
X-675Y-589D01*
X-640D01*
Y-624D01*
X-652Y-635D01*
X-663Y-624D01*
Y-589D01*
X-687Y-519D02*
Y-554D01*
X-675Y-565D01*
X-652D01*
X-640Y-554D01*
Y-519D01*
Y-460D02*
Y-484D01*
X-652Y-495D01*
X-675D01*
X-687Y-484D01*
Y-460D01*
X-675Y-449D01*
X-663D01*
Y-495D01*
X-687Y-355D02*
X-640Y-332D01*
X-687Y-309D01*
X-698Y-285D02*
X-710Y-274D01*
Y-250D01*
X-698Y-239D01*
X-652D01*
X-640Y-250D01*
Y-274D01*
X-652Y-285D01*
X-698D01*
X-628Y-215D02*
Y-169D01*
X-640Y-145D02*
Y-122D01*
Y-134D01*
X-710D01*
X-698Y-145D01*
X450Y660D02*
Y602D01*
X462Y590D01*
X485D01*
X497Y602D01*
Y660D01*
X520Y590D02*
X543D01*
X532D01*
Y660D01*
X520Y648D01*
X732Y597D02*
X720Y585D01*
Y562D01*
X732Y550D01*
X778D01*
X790Y562D01*
Y585D01*
X778Y597D01*
X720Y667D02*
X732Y643D01*
X755Y620D01*
X778D01*
X790Y632D01*
Y655D01*
X778Y667D01*
X767D01*
X755Y655D01*
Y620D01*
X157Y668D02*
X145Y680D01*
X122D01*
X110Y668D01*
Y622D01*
X122Y610D01*
X145D01*
X157Y622D01*
X180Y680D02*
X227D01*
Y668D01*
X180Y622D01*
Y610D01*
X600Y-1120D02*
Y-1050D01*
X635D01*
X647Y-1062D01*
Y-1085D01*
X635Y-1097D01*
X600D01*
X670Y-1062D02*
X682Y-1050D01*
X705D01*
X717Y-1062D01*
Y-1073D01*
X705Y-1085D01*
X693D01*
X705D01*
X717Y-1097D01*
Y-1108D01*
X705Y-1120D01*
X682D01*
X670Y-1108D01*
X282Y-133D02*
X270Y-145D01*
Y-168D01*
X282Y-180D01*
X328D01*
X340Y-168D01*
Y-145D01*
X328Y-133D01*
X282Y-110D02*
X270Y-98D01*
Y-75D01*
X282Y-63D01*
X293D01*
X305Y-75D01*
Y-87D01*
Y-75D01*
X317Y-63D01*
X328D01*
X340Y-75D01*
Y-98D01*
X328Y-110D01*
X280Y180D02*
X210D01*
X233Y203D01*
X210Y227D01*
X280D01*
Y250D02*
Y273D01*
Y262D01*
X210D01*
X222Y250D01*
X-115Y-1300D02*
X-138D01*
X-150Y-1312D01*
Y-1358D01*
X-138Y-1370D01*
X-115D01*
X-103Y-1358D01*
Y-1312D01*
X-115Y-1300D01*
X-80Y-1370D02*
Y-1300D01*
X-45D01*
X-33Y-1312D01*
Y-1335D01*
X-45Y-1347D01*
X-80D01*
X-10Y-1370D02*
X13D01*
X2D01*
Y-1300D01*
X-10Y-1312D01*
X-280Y-320D02*
Y-250D01*
X-245D01*
X-233Y-262D01*
Y-285D01*
X-245Y-297D01*
X-280D01*
X-257D02*
X-233Y-320D01*
X-163D02*
X-210D01*
X-163Y-273D01*
Y-262D01*
X-175Y-250D01*
X-198D01*
X-210Y-262D01*
X227Y-1032D02*
X215Y-1020D01*
X192D01*
X180Y-1032D01*
Y-1078D01*
X192Y-1090D01*
X215D01*
X227Y-1078D01*
X297Y-1020D02*
X250D01*
Y-1055D01*
X273Y-1043D01*
X285D01*
X297Y-1055D01*
Y-1078D01*
X285Y-1090D01*
X262D01*
X250Y-1078D01*
X-538Y27D02*
X-550Y15D01*
Y-8D01*
X-538Y-20D01*
X-492D01*
X-480Y-8D01*
Y15D01*
X-492Y27D01*
X-480Y97D02*
Y50D01*
X-527Y97D01*
X-538D01*
X-550Y85D01*
Y62D01*
X-538Y50D01*
X202Y437D02*
X190Y425D01*
Y402D01*
X202Y390D01*
X248D01*
X260Y402D01*
Y425D01*
X248Y437D01*
X260Y460D02*
Y483D01*
Y472D01*
X190D01*
X202Y460D01*
X410Y-650D02*
X340D01*
Y-615D01*
X352Y-603D01*
X375D01*
X387Y-615D01*
Y-650D01*
Y-627D02*
X410Y-603D01*
Y-545D02*
X340D01*
X375Y-580D01*
Y-533D01*
X-279Y-449D02*
Y-379D01*
X-244D01*
X-232Y-391D01*
Y-414D01*
X-244Y-426D01*
X-279D01*
X-256D02*
X-232Y-449D01*
X-209Y-391D02*
X-197Y-379D01*
X-174D01*
X-162Y-391D01*
Y-402D01*
X-174Y-414D01*
X-186D01*
X-174D01*
X-162Y-426D01*
Y-437D01*
X-174Y-449D01*
X-197D01*
X-209Y-437D01*
X97Y-172D02*
X85Y-160D01*
X62D01*
X50Y-172D01*
Y-218D01*
X62Y-230D01*
X85D01*
X97Y-218D01*
X155Y-230D02*
Y-160D01*
X120Y-195D01*
X167D01*
X500Y-650D02*
X430D01*
Y-615D01*
X442Y-603D01*
X465D01*
X477Y-615D01*
Y-650D01*
Y-627D02*
X500Y-603D01*
Y-580D02*
Y-557D01*
Y-568D01*
X430D01*
X442Y-580D01*
M02*
